Format                           : RealMedia
File size                        : 296 MiB
Duration                         : 1h 30mn
Overall bit rate                 : 452 Kbps
Performer                        : Easy Real Converter

Video
ID                               : 0
Format                           : RealVideo 4
Codec ID                         : RV40
Codec ID/Info                    : Based on AVC (H.264), Real Player 9
Duration                         : 1h 30mn
Bit rate                         : 355 Kbps
Width                            : 688 pixels
Height                           : 288 pixels
Display aspect ratio             : 2.35:1
Frame rate                       : 23.976 fps
Bits/(Pixel*Frame)               : 0.075
Stream size                      : 229 MiB (77%)

Audio
ID                               : 1
Format                           : Cooker
Codec ID                         : cook
Codec ID/Info                    : Based on G.722.1, Real Player 6
Duration                         : 1h 30mn
Bit rate                         : 96.5 Kbps
Channel(s)                       : 2 channels
Sampling rate                    : 44.1 KHz
Bit depth                        : 16 bits
Stream size                      : 62.2 MiB (21%)

